<svg width="332" height="168" viewBox="0 0 332 168" fill="none" xmlns="http://www.w3.org/2000/svg">
<g style="mix-blend-mode:lighten">
<path d="M4.76 72H3.76V73H4.76V72ZM19.64 72V73H20.64V72H19.64ZM19.64 46.08V45.08H18.64V46.08H19.64ZM4.76 0.479994V-0.520006H3.76V0.479994H4.76ZM19.64 33.12H18.64V34.12H19.64V33.12ZM19.64 13.44V12.44H18.64V13.44H19.64ZM4.76 73H19.64V71H4.76V73ZM20.64 72V46.08H18.64V72H20.64ZM19.64 47.08H34.136V45.08H19.64V47.08ZM34.136 47.08C41.6074 47.08 48.1937 45.0154 52.9293 40.9725C57.6848 36.9126 60.48 30.9359 60.48 23.328H58.48C58.48 30.4081 55.8992 35.8074 51.6307 39.4515C47.3423 43.1126 41.2567 45.08 34.136 45.08V47.08ZM60.48 23.328C60.48 15.587 57.7403 9.58226 53.0021 5.52816C48.2853 1.49239 41.6951 -0.520006 34.136 -0.520006V1.47999C41.3609 1.47999 47.4427 3.40359 51.7019 7.04782C55.9397 10.6737 58.48 16.093 58.48 23.328H60.48ZM34.136 -0.520006H4.76V1.47999H34.136V-0.520006ZM3.76 0.479994V72H5.76V0.479994H3.76ZM20.64 33.12V13.44H18.64V33.12H20.64ZM19.64 14.44H34.232V12.44H19.64V14.44ZM34.232 14.44C37.1405 14.44 39.4704 15.3542 41.0659 16.8757C42.6569 18.393 43.6 20.5919 43.6 23.328H45.6C45.6 20.1121 44.4791 17.367 42.4461 15.4283C40.4176 13.4938 37.5635 12.44 34.232 12.44V14.44ZM43.6 23.328C43.6 26.0116 42.66 28.1866 41.0684 29.6939C39.4721 31.2057 37.1406 32.12 34.232 32.12V34.12C37.5634 34.12 40.4159 33.0663 42.4436 31.1461C44.476 29.2214 45.6 26.5004 45.6 23.328H43.6ZM34.232 32.12H19.64V34.12H34.232V32.12ZM80.1463 27.456H79.1463L81.0709 27.8367L80.1463 27.456ZM80.1463 19.584H81.1463V18.584H80.1463V19.584ZM66.7063 19.584V18.584H65.7063V19.584H66.7063ZM66.7063 72H65.7063V73H66.7063V72ZM81.1063 72V73H82.1063V72H81.1063ZM99.8263 31.488V32.488H100.826V31.488H99.8263ZM99.8263 19.008H100.826V18.008H99.8263V19.008ZM94.3543 18.008C91.0502 18.008 87.9859 18.4991 85.3729 19.9031C82.7352 21.3204 80.6437 23.6216 79.2216 27.0752L81.0709 27.8367C82.3368 24.7624 84.1333 22.8396 86.3196 21.6649C88.5306 20.4769 91.2263 20.008 94.3543 20.008V18.008ZM81.1463 27.456V19.584H79.1463V27.456H81.1463ZM80.1463 18.584H66.7063V20.584H80.1463V18.584ZM65.7063 19.584V72H67.7063V19.584H65.7063ZM66.7063 73H81.1063V71H66.7063V73ZM82.1063 72V43.776H80.1063V72H82.1063ZM82.1063 43.776C82.1063 40.0965 83.2377 37.2962 85.0934 35.419C86.9493 33.5416 89.6279 32.488 92.9143 32.488V30.488C89.1926 30.488 85.9672 31.6903 83.6711 34.013C81.3748 36.3358 80.1063 39.6795 80.1063 43.776H82.1063ZM92.9143 32.488H99.8263V30.488H92.9143V32.488ZM100.826 31.488V19.008H98.8263V31.488H100.826ZM99.8263 18.008H94.3543V20.008H99.8263V18.008ZM130.765 74.152C146.83 74.152 159.797 62.2226 159.797 45.792H157.797C157.797 61.0414 145.803 72.152 130.765 72.152V74.152ZM159.797 45.792C159.797 29.3614 146.83 17.432 130.765 17.432V19.432C145.803 19.432 157.797 30.5426 157.797 45.792H159.797ZM130.765 17.432C114.699 17.432 101.733 29.3614 101.733 45.792H103.733C103.733 30.5426 115.726 19.432 130.765 19.432V17.432ZM101.733 45.792C101.733 62.2226 114.699 74.152 130.765 74.152V72.152C115.726 72.152 103.733 61.0414 103.733 45.792H101.733ZM130.765 59.192C127.095 59.192 124.082 57.8119 121.978 55.4887C119.866 53.157 118.613 49.809 118.613 45.792H116.613C116.613 50.223 117.999 54.075 120.495 56.8313C122.999 59.5961 126.562 61.192 130.765 61.192V59.192ZM118.613 45.792C118.613 41.8252 119.865 38.4754 121.979 36.1295C124.086 33.7925 127.1 32.392 130.765 32.392V30.392C126.557 30.392 122.995 32.0155 120.494 34.7905C118 37.5566 116.613 41.4068 116.613 45.792H118.613ZM130.765 32.392C134.429 32.392 137.443 33.7925 139.55 36.1295C141.664 38.4754 142.917 41.8252 142.917 45.792H144.917C144.917 41.4068 143.529 37.5566 141.035 34.7905C138.534 32.0155 134.972 30.392 130.765 30.392V32.392ZM142.917 45.792C142.917 49.809 141.663 53.157 139.551 55.4887C137.447 57.8119 134.434 59.192 130.765 59.192V61.192C134.967 61.192 138.53 59.5961 141.034 56.8313C143.53 54.075 144.917 50.223 144.917 45.792H142.917ZM167.247 14.88H166.247V15.88H167.247V14.88ZM181.647 14.88V15.88H182.647V14.88H181.647ZM181.647 0.479994H182.647V-0.520006H181.647V0.479994ZM167.247 0.479994V-0.520006H166.247V0.479994H167.247ZM181.647 19.584H182.647V18.584H181.647V19.584ZM167.247 19.584V18.584H166.247V19.584H167.247ZM155.535 80.544L155.714 79.5601L154.535 79.3458V80.544H155.535ZM155.535 92.832H154.535V93.6275L155.31 93.8064L155.535 92.832ZM167.247 15.88H181.647V13.88H167.247V15.88ZM182.647 14.88V0.479994H180.647V14.88H182.647ZM181.647 -0.520006H167.247V1.47999H181.647V-0.520006ZM166.247 0.479994V14.88H168.247V0.479994H166.247ZM160.719 94.312C167.418 94.312 172.919 92.513 176.754 88.9972C180.602 85.47 182.647 80.3311 182.647 73.92H180.647C180.647 79.8929 178.755 84.45 175.403 87.5228C172.038 90.607 167.076 92.312 160.719 92.312V94.312ZM182.647 73.92V19.584H180.647V73.92H182.647ZM181.647 18.584H167.247V20.584H181.647V18.584ZM166.247 19.584V73.92H168.247V19.584H166.247ZM166.247 73.92C166.247 75.9941 165.588 77.4048 164.447 78.3257C163.267 79.2773 161.417 79.832 158.799 79.832V81.832C161.652 81.832 164.026 81.2347 165.703 79.8823C167.417 78.4992 168.247 76.4539 168.247 73.92H166.247ZM158.799 79.832C157.705 79.832 156.709 79.7411 155.714 79.5601L155.356 81.5279C156.473 81.7309 157.588 81.832 158.799 81.832V79.832ZM154.535 80.544V92.832H156.535V80.544H154.535ZM155.31 93.8064C156.656 94.117 158.753 94.312 160.719 94.312V92.312C158.845 92.312 156.91 92.123 155.76 91.8576L155.31 93.8064ZM236.467 60.384L237.392 60.7653L237.754 59.8879L236.896 59.4807L236.467 60.384ZM224.947 54.912L225.376 54.0087L224.536 53.6098L224.078 54.4184L224.947 54.912ZM201.427 49.824V48.824H200.288L200.436 49.9533L201.427 49.824ZM238.291 49.824V50.824H239.012L239.24 50.1402L238.291 49.824ZM201.715 39.264L200.742 39.0324L200.449 40.264H201.715V39.264ZM223.699 39.264V40.264H224.808L224.694 39.1611L223.699 39.264ZM239.963 44.256C239.963 29.2029 228.183 17.432 212.947 17.432V19.432C227.088 19.432 237.963 30.3171 237.963 44.256H239.963ZM212.947 17.432C197.398 17.432 185.451 29.517 185.451 45.696H187.451C187.451 30.579 198.545 19.432 212.947 19.432V17.432ZM185.451 45.696C185.451 61.3812 196.713 74.152 213.907 74.152V72.152C197.886 72.152 187.451 60.3468 187.451 45.696H185.451ZM213.907 74.152C224.946 74.152 234.029 68.918 237.392 60.7653L235.543 60.0027C232.57 67.21 224.372 72.152 213.907 72.152V74.152ZM236.896 59.4807L225.376 54.0087L224.518 55.8153L236.038 61.2873L236.896 59.4807ZM224.078 54.4184C222.26 57.6214 218.871 59.672 214.099 59.672V61.672C219.504 61.672 223.603 59.3066 225.817 55.4056L224.078 54.4184ZM214.099 59.672C210.749 59.672 208.041 58.6792 206.078 56.9766C204.116 55.2743 202.824 52.7981 202.419 49.6947L200.436 49.9533C200.895 53.4739 202.386 56.4217 204.768 58.4874C207.149 60.5528 210.345 61.672 214.099 61.672V59.672ZM201.427 50.824H238.291V48.824H201.427V50.824ZM239.24 50.1402C239.771 48.5464 239.963 46.4021 239.963 44.256H237.963C237.963 46.3339 237.771 48.2216 237.343 49.5078L239.24 50.1402ZM202.688 39.4956C203.367 36.6432 204.66 34.5223 206.381 33.1137C208.098 31.7075 210.313 30.952 212.947 30.952V28.952C209.917 28.952 207.236 29.8285 205.114 31.5663C202.994 33.3017 201.503 35.8368 200.742 39.0324L202.688 39.4956ZM212.947 30.952C218.417 30.952 222.184 34.3384 222.705 39.3669L224.694 39.1611C224.062 33.0536 219.381 28.952 212.947 28.952V30.952ZM223.699 38.264H201.715V40.264H223.699V38.264ZM294.082 57.12L295.034 57.4244L295.296 56.6034L294.523 56.2228L294.082 57.12ZM281.794 51.072L282.235 50.1748L281.168 49.6497L280.834 50.7907L281.794 51.072ZM281.794 40.512L280.834 40.7933L281.166 41.927L282.229 41.412L281.794 40.512ZM294.082 34.56L294.517 35.46L295.303 35.0794L295.032 34.2494L294.082 34.56ZM269.602 74.152C281.869 74.152 291.905 67.215 295.034 57.4244L293.129 56.8156C290.306 65.649 281.142 72.152 269.602 72.152V74.152ZM294.523 56.2228L282.235 50.1748L281.352 51.9692L293.64 58.0172L294.523 56.2228ZM280.834 50.7907C279.325 55.9381 275.104 59.192 269.602 59.192V61.192C276.003 61.192 280.998 57.3419 282.753 51.3533L280.834 50.7907ZM269.602 59.192C266.087 59.192 263.145 57.82 261.072 55.4945C258.991 53.1606 257.738 49.8092 257.738 45.792H255.738C255.738 50.2228 257.124 54.0714 259.579 56.8255C262.042 59.588 265.532 61.192 269.602 61.192V59.192ZM257.738 45.792C257.738 41.7748 258.991 38.4234 261.072 36.0895C263.145 33.764 266.087 32.392 269.602 32.392V30.392C265.532 30.392 262.042 31.996 259.579 34.7585C257.124 37.5126 255.738 41.3612 255.738 45.792H257.738ZM269.602 32.392C275.012 32.392 279.326 35.6502 280.834 40.7933L282.753 40.2307C280.997 34.2378 275.903 30.392 269.602 30.392V32.392ZM282.229 41.412L294.517 35.46L293.646 33.66L281.358 39.612L282.229 41.412ZM295.032 34.2494C291.708 24.0772 281.674 17.432 269.602 17.432V19.432C280.953 19.432 290.119 25.6507 293.131 34.8706L295.032 34.2494ZM269.602 17.432C253.225 17.432 240.858 29.5757 240.858 45.696H242.858C242.858 30.7123 254.298 19.432 269.602 19.432V17.432ZM240.858 45.696C240.858 61.9077 253.317 74.152 269.602 74.152V72.152C254.398 72.152 242.858 60.7803 242.858 45.696H240.858ZM331.735 72.096L331.883 73.0849L332.735 72.9572V72.096H331.735ZM331.735 60.768H332.735V59.615L331.593 59.778L331.735 60.768ZM319.447 32.064V31.064H318.447V32.064H319.447ZM331.735 32.064V33.064H332.735V32.064H331.735ZM331.735 19.584H332.735V18.584H331.735V19.584ZM319.447 19.584H318.447V20.584H319.447V19.584ZM319.447 3.84H320.447V2.84H319.447V3.84ZM305.047 3.84V2.84H304.047V3.84H305.047ZM296.023 19.584V18.584H295.023V19.584H296.023ZM296.023 32.064H295.023V33.064H296.023V32.064ZM305.047 32.064H306.047V31.064H305.047V32.064ZM325.015 73.576C327.269 73.576 329.911 73.3808 331.883 73.0849L331.586 71.1071C329.718 71.3872 327.176 71.576 325.015 71.576V73.576ZM332.735 72.096V60.768H330.735V72.096H332.735ZM331.593 59.778C330.276 59.9663 329.174 60.056 328.375 60.056V62.056C329.303 62.056 330.505 61.9537 331.876 61.7579L331.593 59.778ZM328.375 60.056C325.469 60.056 323.525 59.4299 322.309 58.3426C321.116 57.2757 320.447 55.6028 320.447 53.088H318.447C318.447 55.9492 319.217 58.2603 320.976 59.8334C322.712 61.3861 325.232 62.056 328.375 62.056V60.056ZM320.447 53.088V32.064H318.447V53.088H320.447ZM319.447 33.064H331.735V31.064H319.447V33.064ZM332.735 32.064V19.584H330.735V32.064H332.735ZM331.735 18.584H319.447V20.584H331.735V18.584ZM320.447 19.584V3.84H318.447V19.584H320.447ZM319.447 2.84H305.047V4.84H319.447V2.84ZM304.047 3.84V11.52H306.047V3.84H304.047ZM304.047 11.52C304.047 14.027 303.356 15.7433 302.198 16.8427C301.031 17.9507 299.228 18.584 296.695 18.584V20.584C299.537 20.584 301.91 19.8733 303.575 18.2933C305.249 16.7047 306.047 14.389 306.047 11.52H304.047ZM296.695 18.584H296.023V20.584H296.695V18.584ZM295.023 19.584V32.064H297.023V19.584H295.023ZM296.023 33.064H305.047V31.064H296.023V33.064ZM304.047 32.064V53.088H306.047V32.064H304.047ZM304.047 53.088C304.047 59.4303 305.934 64.5863 309.579 68.1546C313.221 71.7202 318.492 73.576 325.015 73.576V71.576C318.865 71.576 314.152 69.8318 310.978 66.7254C307.807 63.6217 306.047 59.0337 306.047 53.088H304.047ZM18.584 166H17.584V167H18.584V166ZM33.464 166V167H34.464V166H33.464ZM33.464 107.44V106.44H32.464V107.44H33.464ZM51.416 107.44V108.44H52.416V107.44H51.416ZM51.416 94.48H52.416V93.48H51.416V94.48ZM0.44 94.48V93.48H-0.56V94.48H0.44ZM0.44 107.44H-0.56V108.44H0.44V107.44ZM18.584 107.44H19.584V106.44H18.584V107.44ZM18.584 167H33.464V165H18.584V167ZM34.464 166V107.44H32.464V166H34.464ZM33.464 108.44H51.416V106.44H33.464V108.44ZM52.416 107.44V94.48H50.416V107.44H52.416ZM51.416 93.48H0.44V95.48H51.416V93.48ZM-0.56 94.48V107.44H1.44V94.48H-0.56ZM0.44 108.44H18.584V106.44H0.44V108.44ZM17.584 107.44V166H19.584V107.44H17.584ZM117.654 113.584V112.584H116.915L116.698 113.291L117.654 113.584ZM108.054 144.88L107.103 145.189L108.082 148.199L109.01 145.173L108.054 144.88ZM97.8778 113.584L98.8287 113.275L98.6041 112.584H97.8778V113.584ZM81.8458 113.584V112.584H81.1194L80.8948 113.275L81.8458 113.584ZM71.6698 144.88L70.7145 145.176L71.6467 148.185L72.6207 145.189L71.6698 144.88ZM61.9738 113.584L62.929 113.288L62.7108 112.584H61.9738V113.584ZM47.0938 113.584V112.584H45.6918L46.1482 113.91L47.0938 113.584ZM65.1418 166L64.1962 166.326L64.4285 167H65.1418V166ZM77.8138 166V167H78.5258L78.7587 166.327L77.8138 166ZM89.9098 131.056L90.8555 130.731L89.9135 127.988L88.9648 130.729L89.9098 131.056ZM101.91 166L100.964 166.325L101.196 167H101.91V166ZM114.582 166V167H115.295L115.527 166.326L114.582 166ZM132.63 113.584L133.575 113.91L134.032 112.584H132.63V113.584ZM116.698 113.291L107.098 144.587L109.01 145.173L118.61 113.877L116.698 113.291ZM109.005 144.571L98.8287 113.275L96.9268 113.893L107.103 145.189L109.005 144.571ZM97.8778 112.584H81.8458V114.584H97.8778V112.584ZM80.8948 113.275L70.7188 144.571L72.6207 145.189L82.7967 113.893L80.8948 113.275ZM72.625 144.584L62.929 113.288L61.0185 113.88L70.7145 145.176L72.625 144.584ZM61.9738 112.584H47.0938V114.584H61.9738V112.584ZM46.1482 113.91L64.1962 166.326L66.0873 165.674L48.0393 113.258L46.1482 113.91ZM65.1418 167H77.8138V165H65.1418V167ZM78.7587 166.327L90.8547 131.383L88.9648 130.729L76.8688 165.673L78.7587 166.327ZM88.964 131.381L100.964 166.325L102.856 165.675L90.8555 130.731L88.964 131.381ZM101.91 167H114.582V165H101.91V167ZM115.527 166.326L133.575 113.91L131.684 113.258L113.636 165.674L115.527 166.326ZM132.63 112.584H117.654V114.584H132.63V112.584ZM183.592 154.384L184.517 154.765L184.879 153.888L184.021 153.481L183.592 154.384ZM172.072 148.912L172.501 148.009L171.661 147.61L171.203 148.418L172.072 148.912ZM148.552 143.824V142.824H147.413L147.561 143.953L148.552 143.824ZM185.416 143.824V144.824H186.137L186.365 144.14L185.416 143.824ZM148.84 133.264L147.867 133.032L147.574 134.264H148.84V133.264ZM170.824 133.264V134.264H171.933L171.819 133.161L170.824 133.264ZM187.088 138.256C187.088 123.203 175.308 111.432 160.072 111.432V113.432C174.213 113.432 185.088 124.317 185.088 138.256H187.088ZM160.072 111.432C144.523 111.432 132.576 123.517 132.576 139.696H134.576C134.576 124.579 145.67 113.432 160.072 113.432V111.432ZM132.576 139.696C132.576 155.381 143.838 168.152 161.032 168.152V166.152C145.011 166.152 134.576 154.347 134.576 139.696H132.576ZM161.032 168.152C172.071 168.152 181.154 162.918 184.517 154.765L182.668 154.003C179.695 161.21 171.497 166.152 161.032 166.152V168.152ZM184.021 153.481L172.501 148.009L171.643 149.815L183.163 155.287L184.021 153.481ZM171.203 148.418C169.385 151.621 165.996 153.672 161.224 153.672V155.672C166.629 155.672 170.728 153.307 172.942 149.406L171.203 148.418ZM161.224 153.672C157.874 153.672 155.166 152.679 153.203 150.977C151.241 149.274 149.949 146.798 149.544 143.695L147.561 143.953C148.02 147.474 149.511 150.422 151.893 152.487C154.274 154.553 157.47 155.672 161.224 155.672V153.672ZM148.552 144.824H185.416V142.824H148.552V144.824ZM186.365 144.14C186.896 142.546 187.088 140.402 187.088 138.256H185.088C185.088 140.334 184.896 142.222 184.468 143.508L186.365 144.14ZM149.813 133.496C150.492 130.643 151.785 128.522 153.506 127.114C155.223 125.708 157.438 124.952 160.072 124.952V122.952C157.042 122.952 154.361 123.828 152.239 125.566C150.119 127.302 148.628 129.837 147.867 133.032L149.813 133.496ZM160.072 124.952C165.542 124.952 169.309 128.338 169.83 133.367L171.819 133.161C171.187 127.054 166.506 122.952 160.072 122.952V124.952ZM170.824 132.264H148.84V134.264H170.824V132.264ZM191.863 166H190.863V167H191.863V166ZM206.263 166V167H207.263V166H206.263ZM206.263 94.48H207.263V93.48H206.263V94.48ZM191.863 94.48V93.48H190.863V94.48H191.863ZM191.863 167H206.263V165H191.863V167ZM207.263 166V94.48H205.263V166H207.263ZM206.263 93.48H191.863V95.48H206.263V93.48ZM190.863 94.48V166H192.863V94.48H190.863ZM249.751 113.584V112.584H249.047L248.809 113.247L249.751 113.584ZM237.847 146.8L236.905 147.137L237.847 149.764L238.788 147.137L237.847 146.8ZM225.943 113.584L226.884 113.247L226.646 112.584H225.943V113.584ZM211.062 113.584V112.584H209.596L210.131 113.949L211.062 113.584ZM231.607 166L230.675 166.365L230.924 167H231.607V166ZM244.087 166V167H244.769L245.018 166.365L244.087 166ZM264.631 113.584L265.562 113.949L266.097 112.584H264.631V113.584ZM248.809 113.247L236.905 146.463L238.788 147.137L250.692 113.921L248.809 113.247ZM238.788 146.463L226.884 113.247L225.001 113.921L236.905 147.137L238.788 146.463ZM225.943 112.584H211.062V114.584H225.943V112.584ZM210.131 113.949L230.675 166.365L232.538 165.635L211.994 113.219L210.131 113.949ZM231.607 167H244.087V165H231.607V167ZM245.018 166.365L265.562 113.949L263.699 113.219L243.155 165.635L245.018 166.365ZM264.631 112.584H249.751V114.584H264.631V112.584ZM315.592 154.384L316.517 154.765L316.879 153.888L316.021 153.481L315.592 154.384ZM304.072 148.912L304.501 148.009L303.661 147.61L303.203 148.418L304.072 148.912ZM280.552 143.824V142.824H279.413L279.561 143.953L280.552 143.824ZM317.416 143.824V144.824H318.137L318.365 144.14L317.416 143.824ZM280.84 133.264L279.867 133.032L279.574 134.264H280.84V133.264ZM302.824 133.264V134.264H303.933L303.819 133.161L302.824 133.264ZM319.088 138.256C319.088 123.203 307.308 111.432 292.072 111.432V113.432C306.213 113.432 317.088 124.317 317.088 138.256H319.088ZM292.072 111.432C276.523 111.432 264.576 123.517 264.576 139.696H266.576C266.576 124.579 277.67 113.432 292.072 113.432V111.432ZM264.576 139.696C264.576 155.381 275.838 168.152 293.032 168.152V166.152C277.011 166.152 266.576 154.347 266.576 139.696H264.576ZM293.032 168.152C304.071 168.152 313.154 162.918 316.517 154.765L314.668 154.003C311.695 161.21 303.497 166.152 293.032 166.152V168.152ZM316.021 153.481L304.501 148.009L303.643 149.815L315.163 155.287L316.021 153.481ZM303.203 148.418C301.385 151.621 297.996 153.672 293.224 153.672V155.672C298.629 155.672 302.728 153.307 304.942 149.406L303.203 148.418ZM293.224 153.672C289.874 153.672 287.166 152.679 285.203 150.977C283.241 149.274 281.949 146.798 281.544 143.695L279.561 143.953C280.02 147.474 281.511 150.422 283.893 152.487C286.274 154.553 289.47 155.672 293.224 155.672V153.672ZM280.552 144.824H317.416V142.824H280.552V144.824ZM318.365 144.14C318.896 142.546 319.088 140.402 319.088 138.256H317.088C317.088 140.334 316.896 142.222 316.468 143.508L318.365 144.14ZM281.813 133.496C282.492 130.643 283.785 128.522 285.506 127.114C287.223 125.708 289.438 124.952 292.072 124.952V122.952C289.042 122.952 286.361 123.828 284.239 125.566C282.119 127.302 280.628 129.837 279.867 133.032L281.813 133.496ZM292.072 124.952C297.542 124.952 301.309 128.338 301.83 133.367L303.819 133.161C303.187 127.054 298.506 122.952 292.072 122.952V124.952ZM302.824 132.264H280.84V134.264H302.824V132.264Z" fill="white" fill-opacity="0.13"/>
</g>
</svg>
