<svg width="188" height="468" viewBox="0 0 188 468" fill="none" xmlns="http://www.w3.org/2000/svg">
<path d="M82.136 0.479994V-0.520006H81.3436L81.1625 0.251455L82.136 0.479994ZM69.944 52.416L68.9677 52.6325L70.9175 52.6445L69.944 52.416ZM58.424 0.479994L59.4003 0.263445L59.2265 -0.520006H58.424V0.479994ZM40.376 0.479994V-0.520006H39.5735L39.3997 0.263445L40.376 0.479994ZM28.856 52.416L27.8825 52.6445L29.8323 52.6325L28.856 52.416ZM16.664 0.479994L17.6375 0.251455L17.4564 -0.520006H16.664V0.479994ZM0.44 0.479994V-0.520006H-0.837028L-0.530828 0.719769L0.44 0.479994ZM18.104 72L17.1332 72.2398L17.3209 73H18.104V72ZM37.496 72V73H38.296L38.4716 72.2195L37.496 72ZM48.92 21.216L49.8956 20.9965H47.9444L48.92 21.216ZM60.344 72L59.3684 72.2195L59.544 73H60.344V72ZM79.736 72V73H80.5191L80.7068 72.2398L79.736 72ZM97.4 0.479994L98.3708 0.719769L98.677 -0.520006H97.4V0.479994ZM81.1625 0.251455L68.9705 52.1875L70.9175 52.6445L83.1095 0.708532L81.1625 0.251455ZM70.9203 52.1994L59.4003 0.263445L57.4477 0.696543L68.9677 52.6325L70.9203 52.1994ZM58.424 -0.520006H40.376V1.47999H58.424V-0.520006ZM39.3997 0.263445L27.8797 52.1994L29.8323 52.6325L41.3523 0.696543L39.3997 0.263445ZM29.8295 52.1875L17.6375 0.251455L15.6905 0.708532L27.8825 52.6445L29.8295 52.1875ZM16.664 -0.520006H0.44V1.47999H16.664V-0.520006ZM-0.530828 0.719769L17.1332 72.2398L19.0748 71.7602L1.41083 0.240219L-0.530828 0.719769ZM18.104 73H37.496V71H18.104V73ZM38.4716 72.2195L49.8956 21.4355L47.9444 20.9965L36.5204 71.7805L38.4716 72.2195ZM47.9444 21.4355L59.3684 72.2195L61.3196 71.7805L49.8956 20.9965L47.9444 21.4355ZM60.344 73H79.736V71H60.344V73ZM80.7068 72.2398L98.3708 0.719769L96.4292 0.240219L78.7652 71.7602L80.7068 72.2398ZM97.4 -0.520006H82.136V1.47999H97.4V-0.520006ZM103.644 14.88H102.644V15.88H103.644V14.88ZM118.044 14.88V15.88H119.044V14.88H118.044ZM118.044 0.479994H119.044V-0.520006H118.044V0.479994ZM103.644 0.479994V-0.520006H102.644V0.479994H103.644ZM103.644 72H102.644V73H103.644V72ZM118.044 72V73H119.044V72H118.044ZM118.044 19.584H119.044V18.584H118.044V19.584ZM103.644 19.584V18.584H102.644V19.584H103.644ZM103.644 15.88H118.044V13.88H103.644V15.88ZM119.044 14.88V0.479994H117.044V14.88H119.044ZM118.044 -0.520006H103.644V1.47999H118.044V-0.520006ZM102.644 0.479994V14.88H104.644V0.479994H102.644ZM103.644 73H118.044V71H103.644V73ZM119.044 72V19.584H117.044V72H119.044ZM118.044 18.584H103.644V20.584H118.044V18.584ZM102.644 19.584V72H104.644V19.584H102.644ZM127.644 72H126.644V73H127.644V72ZM142.044 72V73H143.044V72H142.044ZM142.044 0.479994H143.044V-0.520006H142.044V0.479994ZM127.644 0.479994V-0.520006H126.644V0.479994H127.644ZM127.644 73H142.044V71H127.644V73ZM143.044 72V0.479994H141.044V72H143.044ZM142.044 -0.520006H127.644V1.47999H142.044V-0.520006ZM126.644 0.479994V72H128.644V0.479994H126.644ZM151.644 72H150.644V73H151.644V72ZM166.044 72V73H167.044V72H166.044ZM166.044 0.479994H167.044V-0.520006H166.044V0.479994ZM151.644 0.479994V-0.520006H150.644V0.479994H151.644ZM151.644 73H166.044V71H151.644V73ZM167.044 72V0.479994H165.044V72H167.044ZM166.044 -0.520006H151.644V1.47999H166.044V-0.520006ZM150.644 0.479994V72H152.644V0.479994H150.644ZM48.44 94.48V93.48H47.44V94.48H48.44ZM48.44 137.488L47.64 138.088L49.44 140.488V137.488H48.44ZM16.184 94.48L16.984 93.88L16.684 93.48H16.184V94.48ZM4.76 94.48V93.48H3.76V94.48H4.76ZM4.76 166H3.76V167H4.76V166ZM19.64 166V167H20.64V166H19.64ZM19.64 122.704L20.4428 122.108L18.64 119.681V122.704H19.64ZM51.8 166L50.9972 166.596L51.2971 167H51.8V166ZM63.32 166V167H64.32V166H63.32ZM63.32 94.48H64.32V93.48H63.32V94.48ZM47.44 94.48V137.488H49.44V94.48H47.44ZM49.24 136.888L16.984 93.88L15.384 95.08L47.64 138.088L49.24 136.888ZM16.184 93.48H4.76V95.48H16.184V93.48ZM3.76 94.48V166H5.76V94.48H3.76ZM4.76 167H19.64V165H4.76V167ZM20.64 166V122.704H18.64V166H20.64ZM18.8372 123.3L50.9972 166.596L52.6028 165.404L20.4428 122.108L18.8372 123.3ZM51.8 167H63.32V165H51.8V167ZM64.32 166V94.48H62.32V166H64.32ZM63.32 93.48H48.44V95.48H63.32V93.48ZM99.077 168.152C115.142 168.152 128.109 156.223 128.109 139.792H126.109C126.109 155.041 114.116 166.152 99.077 166.152V168.152ZM128.109 139.792C128.109 123.361 115.142 111.432 99.077 111.432V113.432C114.116 113.432 126.109 124.543 126.109 139.792H128.109ZM99.077 111.432C83.0119 111.432 70.045 123.361 70.045 139.792H72.045C72.045 124.543 84.0381 113.432 99.077 113.432V111.432ZM70.045 139.792C70.045 156.223 83.0119 168.152 99.077 168.152V166.152C84.0381 166.152 72.045 155.041 72.045 139.792H70.045ZM99.077 153.192C95.4076 153.192 92.3943 151.812 90.2902 149.489C88.1784 147.157 86.925 143.809 86.925 139.792H84.925C84.925 144.223 86.3116 148.075 88.8078 150.831C91.3117 153.596 94.8744 155.192 99.077 155.192V153.192ZM86.925 139.792C86.925 135.825 88.1772 132.475 90.2918 130.13C92.3984 127.792 95.4125 126.392 99.077 126.392V124.392C94.8695 124.392 91.3076 126.016 88.8062 128.79C86.3128 131.557 84.925 135.407 84.925 139.792H86.925ZM99.077 126.392C102.742 126.392 105.756 127.792 107.862 130.13C109.977 132.475 111.229 135.825 111.229 139.792H113.229C113.229 135.407 111.841 131.557 109.348 128.79C106.846 126.016 103.284 124.392 99.077 124.392V126.392ZM111.229 139.792C111.229 143.809 109.976 147.157 107.864 149.489C105.76 151.812 102.746 153.192 99.077 153.192V155.192C103.28 155.192 106.842 153.596 109.346 150.831C111.842 148.075 113.229 144.223 113.229 139.792H111.229ZM164.766 166.096L164.914 167.085L165.766 166.957V166.096H164.766ZM164.766 154.768H165.766V153.615L164.624 153.778L164.766 154.768ZM152.478 126.064V125.064H151.478V126.064H152.478ZM164.766 126.064V127.064H165.766V126.064H164.766ZM164.766 113.584H165.766V112.584H164.766V113.584ZM152.478 113.584H151.478V114.584H152.478V113.584ZM152.478 97.84H153.478V96.84H152.478V97.84ZM138.078 97.84V96.84H137.078V97.84H138.078ZM129.054 113.584V112.584H128.054V113.584H129.054ZM129.054 126.064H128.054V127.064H129.054V126.064ZM138.078 126.064H139.078V125.064H138.078V126.064ZM158.046 167.576C160.3 167.576 162.942 167.381 164.914 167.085L164.617 165.107C162.75 165.387 160.207 165.576 158.046 165.576V167.576ZM165.766 166.096V154.768H163.766V166.096H165.766ZM164.624 153.778C163.307 153.966 162.206 154.056 161.406 154.056V156.056C162.334 156.056 163.537 155.954 164.907 155.758L164.624 153.778ZM161.406 154.056C158.5 154.056 156.556 153.43 155.34 152.343C154.147 151.276 153.478 149.603 153.478 147.088H151.478C151.478 149.949 152.248 152.26 154.007 153.833C155.743 155.386 158.263 156.056 161.406 156.056V154.056ZM153.478 147.088V126.064H151.478V147.088H153.478ZM152.478 127.064H164.766V125.064H152.478V127.064ZM165.766 126.064V113.584H163.766V126.064H165.766ZM164.766 112.584H152.478V114.584H164.766V112.584ZM153.478 113.584V97.84H151.478V113.584H153.478ZM152.478 96.84H138.078V98.84H152.478V96.84ZM137.078 97.84V105.52H139.078V97.84H137.078ZM137.078 105.52C137.078 108.027 136.388 109.743 135.229 110.843C134.062 111.951 132.26 112.584 129.726 112.584V114.584C132.568 114.584 134.942 113.873 136.606 112.293C138.28 110.705 139.078 108.389 139.078 105.52H137.078ZM129.726 112.584H129.054V114.584H129.726V112.584ZM128.054 113.584V126.064H130.054V113.584H128.054ZM129.054 127.064H138.078V125.064H129.054V127.064ZM137.078 126.064V147.088H139.078V126.064H137.078ZM137.078 147.088C137.078 153.43 138.965 158.586 142.61 162.155C146.253 165.72 151.523 167.576 158.046 167.576V165.576C151.896 165.576 147.183 163.832 144.009 160.725C140.839 157.622 139.078 153.034 139.078 147.088H137.078ZM4.76 260H3.76V261H4.76V260ZM19.64 260V261H20.64V260H19.64ZM19.64 232.544V231.544H18.64V232.544H19.64ZM48.92 232.544V233.544H49.92V232.544H48.92ZM48.92 219.584H49.92V218.584H48.92V219.584ZM19.64 219.584H18.64V220.584H19.64V219.584ZM19.64 201.44V200.44H18.64V201.44H19.64ZM53.72 201.44V202.44H54.72V201.44H53.72ZM53.72 188.48H54.72V187.48H53.72V188.48ZM4.76 188.48V187.48H3.76V188.48H4.76ZM4.76 261H19.64V259H4.76V261ZM20.64 260V232.544H18.64V260H20.64ZM19.64 233.544H48.92V231.544H19.64V233.544ZM49.92 232.544V219.584H47.92V232.544H49.92ZM48.92 218.584H19.64V220.584H48.92V218.584ZM20.64 219.584V201.44H18.64V219.584H20.64ZM19.64 202.44H53.72V200.44H19.64V202.44ZM54.72 201.44V188.48H52.72V201.44H54.72ZM53.72 187.48H4.76V189.48H53.72V187.48ZM3.76 188.48V260H5.76V188.48H3.76ZM60.425 202.88H59.425V203.88H60.425V202.88ZM74.825 202.88V203.88H75.825V202.88H74.825ZM74.825 188.48H75.825V187.48H74.825V188.48ZM60.425 188.48V187.48H59.425V188.48H60.425ZM60.425 260H59.425V261H60.425V260ZM74.825 260V261H75.825V260H74.825ZM74.825 207.584H75.825V206.584H74.825V207.584ZM60.425 207.584V206.584H59.425V207.584H60.425ZM60.425 203.88H74.825V201.88H60.425V203.88ZM75.825 202.88V188.48H73.825V202.88H75.825ZM74.825 187.48H60.425V189.48H74.825V187.48ZM59.425 188.48V202.88H61.425V188.48H59.425ZM60.425 261H74.825V259H60.425V261ZM75.825 260V207.584H73.825V260H75.825ZM74.825 206.584H60.425V208.584H74.825V206.584ZM59.425 207.584V260H61.425V207.584H59.425ZM84.425 260H83.425V261H84.425V260ZM98.825 260V261H99.825V260H98.825ZM98.825 188.48H99.825V187.48H98.825V188.48ZM84.425 188.48V187.48H83.425V188.48H84.425ZM84.425 261H98.825V259H84.425V261ZM99.825 260V188.48H97.825V260H99.825ZM98.825 187.48H84.425V189.48H98.825V187.48ZM83.425 188.48V260H85.425V188.48H83.425ZM108.425 260H107.425V261H108.425V260ZM122.825 260V261H123.825V260H122.825ZM122.825 188.48H123.825V187.48H122.825V188.48ZM108.425 188.48V187.48H107.425V188.48H108.425ZM108.425 261H122.825V259H108.425V261ZM123.825 260V188.48H121.825V260H123.825ZM122.825 187.48H108.425V189.48H122.825V187.48ZM107.425 188.48V260H109.425V188.48H107.425ZM18.584 354H17.584V355H18.584V354ZM33.464 354V355H34.464V354H33.464ZM33.464 295.44V294.44H32.464V295.44H33.464ZM51.416 295.44V296.44H52.416V295.44H51.416ZM51.416 282.48H52.416V281.48H51.416V282.48ZM0.44 282.48V281.48H-0.56V282.48H0.44ZM0.44 295.44H-0.56V296.44H0.44V295.44ZM18.584 295.44H19.584V294.44H18.584V295.44ZM18.584 355H33.464V353H18.584V355ZM34.464 354V295.44H32.464V354H34.464ZM33.464 296.44H51.416V294.44H33.464V296.44ZM52.416 295.44V282.48H50.416V295.44H52.416ZM51.416 281.48H0.44V283.48H51.416V281.48ZM-0.56 282.48V295.44H1.44V282.48H-0.56ZM0.44 296.44H18.584V294.44H0.44V296.44ZM17.584 295.44V354H19.584V295.44H17.584ZM72.0125 306.384H71.0125V309.504L72.8262 306.965L72.0125 306.384ZM72.0125 282.48H73.0125V281.48H72.0125V282.48ZM57.6125 282.48V281.48H56.6125V282.48H57.6125ZM57.6125 354H56.6125V355H57.6125V354ZM72.0125 354V355H73.0125V354H72.0125ZM91.2125 354H90.2125V355H91.2125V354ZM105.613 354V355H106.613V354H105.613ZM85.7405 299.432C79.6859 299.432 74.3287 301.421 71.1988 305.803L72.8262 306.965C75.4563 303.283 80.0831 301.432 85.7405 301.432V299.432ZM73.0125 306.384V282.48H71.0125V306.384H73.0125ZM72.0125 281.48H57.6125V283.48H72.0125V281.48ZM56.6125 282.48V354H58.6125V282.48H56.6125ZM57.6125 355H72.0125V353H57.6125V355ZM73.0125 354V323.28H71.0125V354H73.0125ZM73.0125 323.28C73.0125 320.529 73.9183 318.32 75.403 316.804C76.8866 315.288 79.0189 314.392 81.6125 314.392V312.392C78.5421 312.392 75.8744 313.464 73.974 315.404C72.0747 317.344 71.0125 320.079 71.0125 323.28H73.0125ZM81.6125 314.392C84.2061 314.392 86.3384 315.288 87.822 316.804C89.3067 318.32 90.2125 320.529 90.2125 323.28H92.2125C92.2125 320.079 91.1503 317.344 89.251 315.404C87.3506 313.464 84.6829 312.392 81.6125 312.392V314.392ZM90.2125 323.28V354H92.2125V323.28H90.2125ZM91.2125 355H105.613V353H91.2125V355ZM106.613 354V320.208H104.613V354H106.613ZM106.613 320.208C106.613 314.024 104.513 308.812 100.808 305.145C97.104 301.479 91.871 299.432 85.7405 299.432V301.432C91.418 301.432 96.121 303.321 99.4011 306.567C102.68 309.812 104.613 314.488 104.613 320.208H106.613ZM161.374 342.384L162.298 342.765L162.66 341.888L161.803 341.481L161.374 342.384ZM149.854 336.912L150.283 336.009L149.443 335.61L148.984 336.418L149.854 336.912ZM126.334 331.824V330.824H125.195L125.342 331.953L126.334 331.824ZM163.197 331.824V332.824H163.918L164.146 332.14L163.197 331.824ZM126.621 321.264L125.649 321.032L125.355 322.264H126.621V321.264ZM148.605 321.264V322.264H149.714L149.6 321.161L148.605 321.264ZM164.87 326.256C164.87 311.203 153.089 299.432 137.854 299.432V301.432C151.994 301.432 162.87 312.317 162.87 326.256H164.87ZM137.854 299.432C122.304 299.432 110.357 311.517 110.357 327.696H112.357C112.357 312.579 123.451 301.432 137.854 301.432V299.432ZM110.357 327.696C110.357 343.381 121.619 356.152 138.814 356.152V354.152C122.792 354.152 112.357 342.347 112.357 327.696H110.357ZM138.814 356.152C149.852 356.152 158.935 350.918 162.298 342.765L160.449 342.003C157.476 349.21 149.279 354.152 138.814 354.152V356.152ZM161.803 341.481L150.283 336.009L149.424 337.815L160.944 343.287L161.803 341.481ZM148.984 336.418C147.166 339.621 143.777 341.672 139.006 341.672V343.672C144.41 343.672 148.509 341.307 150.723 337.406L148.984 336.418ZM139.006 341.672C135.656 341.672 132.948 340.679 130.985 338.977C129.022 337.274 127.73 334.798 127.325 331.695L125.342 331.953C125.801 335.474 127.293 338.422 129.674 340.487C132.055 342.553 135.251 343.672 139.006 343.672V341.672ZM126.334 332.824H163.197V330.824H126.334V332.824ZM164.146 332.14C164.677 330.546 164.87 328.402 164.87 326.256H162.87C162.87 328.334 162.678 330.222 162.249 331.508L164.146 332.14ZM127.594 321.496C128.273 318.643 129.567 316.522 131.287 315.114C133.005 313.708 135.22 312.952 137.854 312.952V310.952C134.823 310.952 132.142 311.828 130.02 313.566C127.9 315.302 126.41 317.837 125.649 321.032L127.594 321.496ZM137.854 312.952C143.324 312.952 147.091 316.338 147.611 321.367L149.6 321.161C148.968 315.054 144.287 310.952 137.854 310.952V312.952ZM148.605 320.264H126.621V322.264H148.605V320.264ZM71.288 427.84L72.2591 428.079L72.288 427.961V427.84H71.288ZM71.288 407.68H72.288V406.68H71.288V407.68ZM39.608 407.68V406.68H38.608V407.68H39.608ZM39.608 420.64H38.608V421.64H39.608V420.64ZM56.888 420.64H57.888V419.64H56.888V420.64ZM56.888 426.88L57.8093 427.269L57.888 427.082V426.88H56.888ZM55.928 400.768L54.9874 401.108L55.3638 402.15L56.362 401.669L55.928 400.768ZM69.08 394.432L69.514 395.333L70.3223 394.943L70.0225 394.098L69.08 394.432ZM39.416 450.152C57.7578 450.152 69.2532 440.303 72.2591 428.079L70.3169 427.601C67.5628 438.801 56.9782 448.152 39.416 448.152V450.152ZM72.288 427.84V407.68H70.288V427.84H72.288ZM71.288 406.68H39.608V408.68H71.288V406.68ZM38.608 407.68V420.64H40.608V407.68H38.608ZM39.608 421.64H56.888V419.64H39.608V421.64ZM55.888 420.64V426.88H57.888V420.64H55.888ZM55.9668 426.491C54.3361 430.353 49.1026 434.712 39.416 434.712V436.712C49.6974 436.712 55.7919 432.047 57.8093 427.269L55.9668 426.491ZM39.416 434.712C32.8434 434.712 27.5768 432.428 23.9482 428.527C20.3122 424.618 18.24 418.998 18.24 412.192H16.24C16.24 419.402 18.4398 425.542 22.4838 429.889C26.5352 434.244 32.3566 436.712 39.416 436.712V434.712ZM18.24 412.192C18.24 405.435 20.3118 399.832 23.8379 395.931C27.3562 392.038 32.3842 389.768 38.456 389.768V387.768C31.8558 387.768 26.2758 390.25 22.3541 394.589C18.4402 398.92 16.24 405.029 16.24 412.192H18.24ZM38.456 389.768C46.6579 389.768 52.6287 394.576 54.9874 401.108L56.8686 400.428C54.2353 393.136 47.5342 387.768 38.456 387.768V389.768ZM56.362 401.669L69.514 395.333L68.646 393.531L55.494 399.867L56.362 401.669ZM70.0225 394.098C66.1192 383.089 54.2797 374.328 38.456 374.328V376.328C53.5443 376.328 64.5528 384.655 68.1375 394.766L70.0225 394.098ZM38.456 374.328C17.1504 374.328 1.36 390.345 1.36 412.192H3.36C3.36 391.415 18.2896 376.328 38.456 376.328V374.328ZM1.36 412.192C1.36 433.959 17.358 450.152 39.416 450.152V448.152C18.466 448.152 3.36 432.857 3.36 412.192H1.36ZM78.0275 408.64L77.0853 408.305L76.7842 409.152L77.5943 409.541L78.0275 408.64ZM90.4115 414.592L89.9783 415.493L91.0076 415.988L91.3621 414.902L90.4115 414.592ZM109.324 415.168L109.53 416.147L110.324 415.979V415.168H109.324ZM92.9075 418.624L93.1104 419.603L93.1135 419.603L92.9075 418.624ZM110.284 443.2H111.284V440.702L109.56 442.51L110.284 443.2ZM110.284 448H109.284V449H110.284V448ZM123.724 448V449H124.724V448H123.724ZM95.4995 428.608L95.2826 427.632L95.2792 427.633L95.4995 428.608ZM109.324 425.536H110.324V424.289L109.107 424.56L109.324 425.536ZM101.259 393.432C89.8105 393.432 80.3327 399.172 77.0853 408.305L78.9697 408.975C81.8663 400.828 90.4365 395.432 101.259 395.432V393.432ZM77.5943 409.541L89.9783 415.493L90.8447 413.691L78.4607 407.739L77.5943 409.541ZM91.3621 414.902C92.7576 410.629 96.584 407.912 101.259 407.912V405.912C95.759 405.912 91.1374 409.147 89.4609 414.282L91.3621 414.902ZM101.259 407.912C103.488 407.912 105.266 408.514 106.464 409.479C107.644 410.429 108.324 411.774 108.324 413.44H110.324C110.324 411.17 109.371 409.251 107.719 407.921C106.085 406.606 103.831 405.912 101.259 405.912V407.912ZM108.324 413.44V415.168H110.324V413.44H108.324ZM109.117 414.189L92.7015 417.645L93.1135 419.603L109.53 416.147L109.117 414.189ZM92.7046 417.645C87.2803 418.769 82.8961 420.646 79.8514 423.321C76.7766 426.023 75.1075 429.508 75.1075 433.696H77.1075C77.1075 430.108 78.5104 427.161 81.1716 424.823C83.8629 422.458 87.8787 420.687 93.1104 419.603L92.7046 417.645ZM75.1075 433.696C75.1075 438.37 77.1188 442.514 80.7031 445.471C84.2765 448.419 89.3639 450.152 95.4995 450.152V448.152C89.7311 448.152 85.1225 446.525 81.9759 443.929C78.8402 441.342 77.1075 437.758 77.1075 433.696H75.1075ZM95.4995 450.152C101.781 450.152 106.857 448.243 111.007 443.89L109.56 442.51C105.838 446.413 101.314 448.152 95.4995 448.152V450.152ZM109.284 443.2V448H111.284V443.2H109.284ZM110.284 449H123.724V447H110.284V449ZM124.724 448V413.44H122.724V448H124.724ZM124.724 413.44C124.724 407.533 122.317 402.501 118.142 398.961C113.981 395.432 108.121 393.432 101.259 393.432V395.432C107.742 395.432 113.114 397.32 116.849 400.487C120.57 403.643 122.724 408.115 122.724 413.44H124.724ZM97.7075 437.592C95.7837 437.592 94.3388 437.143 93.4008 436.437C92.4949 435.755 91.9875 434.783 91.9875 433.504H89.9875C89.9875 435.393 90.7762 436.965 92.1982 438.035C93.5882 439.081 95.5033 439.592 97.7075 439.592V437.592ZM91.9875 433.504C91.9875 432.53 92.2938 431.718 92.8708 431.077C93.4566 430.426 94.3818 429.886 95.7198 429.583L95.2792 427.633C93.6412 428.002 92.3104 428.71 91.3842 429.739C90.4492 430.778 89.9875 432.078 89.9875 433.504H91.9875ZM95.7164 429.584L109.54 426.512L109.107 424.56L95.2826 427.632L95.7164 429.584ZM108.324 425.536V428.032H110.324V425.536H108.324ZM108.324 428.032C108.324 433.253 103.77 437.592 97.7075 437.592V439.592C104.701 439.592 110.324 434.523 110.324 428.032H108.324ZM144.834 401.056H143.834V403.744L145.591 401.71L144.834 401.056ZM144.834 395.584H145.834V394.584H144.834V395.584ZM131.394 395.584V394.584H130.394V395.584H131.394ZM131.394 467.2H130.394V468.2H131.394V467.2ZM145.794 467.2V468.2H146.794V467.2H145.794ZM145.794 443.872L146.47 443.136L144.794 441.595V443.872H145.794ZM160.866 393.432C153.908 393.432 147.947 395.921 144.077 400.402L145.591 401.71C149.016 397.743 154.383 395.432 160.866 395.432V393.432ZM145.834 401.056V395.584H143.834V401.056H145.834ZM144.834 394.584H131.394V396.584H144.834V394.584ZM130.394 395.584V467.2H132.394V395.584H130.394ZM131.394 468.2H145.794V466.2H131.394V468.2ZM146.794 467.2V443.872H144.794V467.2H146.794ZM145.117 444.608C148.88 448.066 154.413 450.152 160.77 450.152V448.152C154.838 448.152 149.812 446.206 146.47 443.136L145.117 444.608ZM160.77 450.152C176.52 450.152 188.458 437.578 188.458 421.792H186.458C186.458 436.534 175.355 448.152 160.77 448.152V450.152ZM188.458 421.792C188.458 405.906 176.324 393.432 160.866 393.432V395.432C175.168 395.432 186.458 406.958 186.458 421.792H188.458ZM159.042 435.192C155.422 435.192 152.381 433.813 150.238 431.483C148.089 429.147 146.794 425.799 146.794 421.792H144.794C144.794 426.233 146.234 430.085 148.766 432.837C151.303 435.595 154.886 437.192 159.042 437.192V435.192ZM146.794 421.792C146.794 417.784 148.089 414.437 150.238 412.101C152.381 409.771 155.422 408.392 159.042 408.392V406.392C154.886 406.392 151.303 407.989 148.766 410.747C146.234 413.499 144.794 417.352 144.794 421.792H146.794ZM159.042 408.392C166.303 408.392 171.578 413.932 171.578 421.792H173.578C173.578 412.948 167.524 406.392 159.042 406.392V408.392ZM171.578 421.792C171.578 429.652 166.303 435.192 159.042 435.192V437.192C167.524 437.192 173.578 430.636 173.578 421.792H171.578Z" fill="white" fill-opacity="0.12"/>
<path d="M82.136 0.479994V-0.520006H81.3436L81.1625 0.251455L82.136 0.479994ZM69.944 52.416L68.9677 52.6325L70.9175 52.6445L69.944 52.416ZM58.424 0.479994L59.4003 0.263445L59.2265 -0.520006H58.424V0.479994ZM40.376 0.479994V-0.520006H39.5735L39.3997 0.263445L40.376 0.479994ZM28.856 52.416L27.8825 52.6445L29.8323 52.6325L28.856 52.416ZM16.664 0.479994L17.6375 0.251455L17.4564 -0.520006H16.664V0.479994ZM0.44 0.479994V-0.520006H-0.837028L-0.530828 0.719769L0.44 0.479994ZM18.104 72L17.1332 72.2398L17.3209 73H18.104V72ZM37.496 72V73H38.296L38.4716 72.2195L37.496 72ZM48.92 21.216L49.8956 20.9965H47.9444L48.92 21.216ZM60.344 72L59.3684 72.2195L59.544 73H60.344V72ZM79.736 72V73H80.5191L80.7068 72.2398L79.736 72ZM97.4 0.479994L98.3708 0.719769L98.677 -0.520006H97.4V0.479994ZM81.1625 0.251455L68.9705 52.1875L70.9175 52.6445L83.1095 0.708532L81.1625 0.251455ZM70.9203 52.1994L59.4003 0.263445L57.4477 0.696543L68.9677 52.6325L70.9203 52.1994ZM58.424 -0.520006H40.376V1.47999H58.424V-0.520006ZM39.3997 0.263445L27.8797 52.1994L29.8323 52.6325L41.3523 0.696543L39.3997 0.263445ZM29.8295 52.1875L17.6375 0.251455L15.6905 0.708532L27.8825 52.6445L29.8295 52.1875ZM16.664 -0.520006H0.44V1.47999H16.664V-0.520006ZM-0.530828 0.719769L17.1332 72.2398L19.0748 71.7602L1.41083 0.240219L-0.530828 0.719769ZM18.104 73H37.496V71H18.104V73ZM38.4716 72.2195L49.8956 21.4355L47.9444 20.9965L36.5204 71.7805L38.4716 72.2195ZM47.9444 21.4355L59.3684 72.2195L61.3196 71.7805L49.8956 20.9965L47.9444 21.4355ZM60.344 73H79.736V71H60.344V73ZM80.7068 72.2398L98.3708 0.719769L96.4292 0.240219L78.7652 71.7602L80.7068 72.2398ZM97.4 -0.520006H82.136V1.47999H97.4V-0.520006ZM103.644 14.88H102.644V15.88H103.644V14.88ZM118.044 14.88V15.88H119.044V14.88H118.044ZM118.044 0.479994H119.044V-0.520006H118.044V0.479994ZM103.644 0.479994V-0.520006H102.644V0.479994H103.644ZM103.644 72H102.644V73H103.644V72ZM118.044 72V73H119.044V72H118.044ZM118.044 19.584H119.044V18.584H118.044V19.584ZM103.644 19.584V18.584H102.644V19.584H103.644ZM103.644 15.88H118.044V13.88H103.644V15.88ZM119.044 14.88V0.479994H117.044V14.88H119.044ZM118.044 -0.520006H103.644V1.47999H118.044V-0.520006ZM102.644 0.479994V14.88H104.644V0.479994H102.644ZM103.644 73H118.044V71H103.644V73ZM119.044 72V19.584H117.044V72H119.044ZM118.044 18.584H103.644V20.584H118.044V18.584ZM102.644 19.584V72H104.644V19.584H102.644ZM127.644 72H126.644V73H127.644V72ZM142.044 72V73H143.044V72H142.044ZM142.044 0.479994H143.044V-0.520006H142.044V0.479994ZM127.644 0.479994V-0.520006H126.644V0.479994H127.644ZM127.644 73H142.044V71H127.644V73ZM143.044 72V0.479994H141.044V72H143.044ZM142.044 -0.520006H127.644V1.47999H142.044V-0.520006ZM126.644 0.479994V72H128.644V0.479994H126.644ZM151.644 72H150.644V73H151.644V72ZM166.044 72V73H167.044V72H166.044ZM166.044 0.479994H167.044V-0.520006H166.044V0.479994ZM151.644 0.479994V-0.520006H150.644V0.479994H151.644ZM151.644 73H166.044V71H151.644V73ZM167.044 72V0.479994H165.044V72H167.044ZM166.044 -0.520006H151.644V1.47999H166.044V-0.520006ZM150.644 0.479994V72H152.644V0.479994H150.644ZM48.44 94.48V93.48H47.44V94.48H48.44ZM48.44 137.488L47.64 138.088L49.44 140.488V137.488H48.44ZM16.184 94.48L16.984 93.88L16.684 93.48H16.184V94.48ZM4.76 94.48V93.48H3.76V94.48H4.76ZM4.76 166H3.76V167H4.76V166ZM19.64 166V167H20.64V166H19.64ZM19.64 122.704L20.4428 122.108L18.64 119.681V122.704H19.64ZM51.8 166L50.9972 166.596L51.2971 167H51.8V166ZM63.32 166V167H64.32V166H63.32ZM63.32 94.48H64.32V93.48H63.32V94.48ZM47.44 94.48V137.488H49.44V94.48H47.44ZM49.24 136.888L16.984 93.88L15.384 95.08L47.64 138.088L49.24 136.888ZM16.184 93.48H4.76V95.48H16.184V93.48ZM3.76 94.48V166H5.76V94.48H3.76ZM4.76 167H19.64V165H4.76V167ZM20.64 166V122.704H18.64V166H20.64ZM18.8372 123.3L50.9972 166.596L52.6028 165.404L20.4428 122.108L18.8372 123.3ZM51.8 167H63.32V165H51.8V167ZM64.32 166V94.48H62.32V166H64.32ZM63.32 93.48H48.44V95.48H63.32V93.48ZM99.077 168.152C115.142 168.152 128.109 156.223 128.109 139.792H126.109C126.109 155.041 114.116 166.152 99.077 166.152V168.152ZM128.109 139.792C128.109 123.361 115.142 111.432 99.077 111.432V113.432C114.116 113.432 126.109 124.543 126.109 139.792H128.109ZM99.077 111.432C83.0119 111.432 70.045 123.361 70.045 139.792H72.045C72.045 124.543 84.0381 113.432 99.077 113.432V111.432ZM70.045 139.792C70.045 156.223 83.0119 168.152 99.077 168.152V166.152C84.0381 166.152 72.045 155.041 72.045 139.792H70.045ZM99.077 153.192C95.4076 153.192 92.3943 151.812 90.2902 149.489C88.1784 147.157 86.925 143.809 86.925 139.792H84.925C84.925 144.223 86.3116 148.075 88.8078 150.831C91.3117 153.596 94.8744 155.192 99.077 155.192V153.192ZM86.925 139.792C86.925 135.825 88.1772 132.475 90.2918 130.13C92.3984 127.792 95.4125 126.392 99.077 126.392V124.392C94.8695 124.392 91.3076 126.016 88.8062 128.79C86.3128 131.557 84.925 135.407 84.925 139.792H86.925ZM99.077 126.392C102.742 126.392 105.756 127.792 107.862 130.13C109.977 132.475 111.229 135.825 111.229 139.792H113.229C113.229 135.407 111.841 131.557 109.348 128.79C106.846 126.016 103.284 124.392 99.077 124.392V126.392ZM111.229 139.792C111.229 143.809 109.976 147.157 107.864 149.489C105.76 151.812 102.746 153.192 99.077 153.192V155.192C103.28 155.192 106.842 153.596 109.346 150.831C111.842 148.075 113.229 144.223 113.229 139.792H111.229ZM164.766 166.096L164.914 167.085L165.766 166.957V166.096H164.766ZM164.766 154.768H165.766V153.615L164.624 153.778L164.766 154.768ZM152.478 126.064V125.064H151.478V126.064H152.478ZM164.766 126.064V127.064H165.766V126.064H164.766ZM164.766 113.584H165.766V112.584H164.766V113.584ZM152.478 113.584H151.478V114.584H152.478V113.584ZM152.478 97.84H153.478V96.84H152.478V97.84ZM138.078 97.84V96.84H137.078V97.84H138.078ZM129.054 113.584V112.584H128.054V113.584H129.054ZM129.054 126.064H128.054V127.064H129.054V126.064ZM138.078 126.064H139.078V125.064H138.078V126.064ZM158.046 167.576C160.3 167.576 162.942 167.381 164.914 167.085L164.617 165.107C162.75 165.387 160.207 165.576 158.046 165.576V167.576ZM165.766 166.096V154.768H163.766V166.096H165.766ZM164.624 153.778C163.307 153.966 162.206 154.056 161.406 154.056V156.056C162.334 156.056 163.537 155.954 164.907 155.758L164.624 153.778ZM161.406 154.056C158.5 154.056 156.556 153.43 155.34 152.343C154.147 151.276 153.478 149.603 153.478 147.088H151.478C151.478 149.949 152.248 152.26 154.007 153.833C155.743 155.386 158.263 156.056 161.406 156.056V154.056ZM153.478 147.088V126.064H151.478V147.088H153.478ZM152.478 127.064H164.766V125.064H152.478V127.064ZM165.766 126.064V113.584H163.766V126.064H165.766ZM164.766 112.584H152.478V114.584H164.766V112.584ZM153.478 113.584V97.84H151.478V113.584H153.478ZM152.478 96.84H138.078V98.84H152.478V96.84ZM137.078 97.84V105.52H139.078V97.84H137.078ZM137.078 105.52C137.078 108.027 136.388 109.743 135.229 110.843C134.062 111.951 132.26 112.584 129.726 112.584V114.584C132.568 114.584 134.942 113.873 136.606 112.293C138.28 110.705 139.078 108.389 139.078 105.52H137.078ZM129.726 112.584H129.054V114.584H129.726V112.584ZM128.054 113.584V126.064H130.054V113.584H128.054ZM129.054 127.064H138.078V125.064H129.054V127.064ZM137.078 126.064V147.088H139.078V126.064H137.078ZM137.078 147.088C137.078 153.43 138.965 158.586 142.61 162.155C146.253 165.72 151.523 167.576 158.046 167.576V165.576C151.896 165.576 147.183 163.832 144.009 160.725C140.839 157.622 139.078 153.034 139.078 147.088H137.078ZM4.76 260H3.76V261H4.76V260ZM19.64 260V261H20.64V260H19.64ZM19.64 232.544V231.544H18.64V232.544H19.64ZM48.92 232.544V233.544H49.92V232.544H48.92ZM48.92 219.584H49.92V218.584H48.92V219.584ZM19.64 219.584H18.64V220.584H19.64V219.584ZM19.64 201.44V200.44H18.64V201.44H19.64ZM53.72 201.44V202.44H54.72V201.44H53.72ZM53.72 188.48H54.72V187.48H53.72V188.48ZM4.76 188.48V187.48H3.76V188.48H4.76ZM4.76 261H19.64V259H4.76V261ZM20.64 260V232.544H18.64V260H20.64ZM19.64 233.544H48.92V231.544H19.64V233.544ZM49.92 232.544V219.584H47.92V232.544H49.92ZM48.92 218.584H19.64V220.584H48.92V218.584ZM20.64 219.584V201.44H18.64V219.584H20.64ZM19.64 202.44H53.72V200.44H19.64V202.44ZM54.72 201.44V188.48H52.72V201.44H54.72ZM53.72 187.48H4.76V189.48H53.72V187.48ZM3.76 188.48V260H5.76V188.48H3.76ZM60.425 202.88H59.425V203.88H60.425V202.88ZM74.825 202.88V203.88H75.825V202.88H74.825ZM74.825 188.48H75.825V187.48H74.825V188.48ZM60.425 188.48V187.48H59.425V188.48H60.425ZM60.425 260H59.425V261H60.425V260ZM74.825 260V261H75.825V260H74.825ZM74.825 207.584H75.825V206.584H74.825V207.584ZM60.425 207.584V206.584H59.425V207.584H60.425ZM60.425 203.88H74.825V201.88H60.425V203.88ZM75.825 202.88V188.48H73.825V202.88H75.825ZM74.825 187.48H60.425V189.48H74.825V187.48ZM59.425 188.48V202.88H61.425V188.48H59.425ZM60.425 261H74.825V259H60.425V261ZM75.825 260V207.584H73.825V260H75.825ZM74.825 206.584H60.425V208.584H74.825V206.584ZM59.425 207.584V260H61.425V207.584H59.425ZM84.425 260H83.425V261H84.425V260ZM98.825 260V261H99.825V260H98.825ZM98.825 188.48H99.825V187.48H98.825V188.48ZM84.425 188.48V187.48H83.425V188.48H84.425ZM84.425 261H98.825V259H84.425V261ZM99.825 260V188.48H97.825V260H99.825ZM98.825 187.48H84.425V189.48H98.825V187.48ZM83.425 188.48V260H85.425V188.48H83.425ZM108.425 260H107.425V261H108.425V260ZM122.825 260V261H123.825V260H122.825ZM122.825 188.48H123.825V187.48H122.825V188.48ZM108.425 188.48V187.48H107.425V188.48H108.425ZM108.425 261H122.825V259H108.425V261ZM123.825 260V188.48H121.825V260H123.825ZM122.825 187.48H108.425V189.48H122.825V187.48ZM107.425 188.48V260H109.425V188.48H107.425ZM18.584 354H17.584V355H18.584V354ZM33.464 354V355H34.464V354H33.464ZM33.464 295.44V294.44H32.464V295.44H33.464ZM51.416 295.44V296.44H52.416V295.44H51.416ZM51.416 282.48H52.416V281.48H51.416V282.48ZM0.44 282.48V281.48H-0.56V282.48H0.44ZM0.44 295.44H-0.56V296.44H0.44V295.44ZM18.584 295.44H19.584V294.44H18.584V295.44ZM18.584 355H33.464V353H18.584V355ZM34.464 354V295.44H32.464V354H34.464ZM33.464 296.44H51.416V294.44H33.464V296.44ZM52.416 295.44V282.48H50.416V295.44H52.416ZM51.416 281.48H0.44V283.48H51.416V281.48ZM-0.56 282.48V295.44H1.44V282.48H-0.56ZM0.44 296.44H18.584V294.44H0.44V296.44ZM17.584 295.44V354H19.584V295.44H17.584ZM72.0125 306.384H71.0125V309.504L72.8262 306.965L72.0125 306.384ZM72.0125 282.48H73.0125V281.48H72.0125V282.48ZM57.6125 282.48V281.48H56.6125V282.48H57.6125ZM57.6125 354H56.6125V355H57.6125V354ZM72.0125 354V355H73.0125V354H72.0125ZM91.2125 354H90.2125V355H91.2125V354ZM105.613 354V355H106.613V354H105.613ZM85.7405 299.432C79.6859 299.432 74.3287 301.421 71.1988 305.803L72.8262 306.965C75.4563 303.283 80.0831 301.432 85.7405 301.432V299.432ZM73.0125 306.384V282.48H71.0125V306.384H73.0125ZM72.0125 281.48H57.6125V283.48H72.0125V281.48ZM56.6125 282.48V354H58.6125V282.48H56.6125ZM57.6125 355H72.0125V353H57.6125V355ZM73.0125 354V323.28H71.0125V354H73.0125ZM73.0125 323.28C73.0125 320.529 73.9183 318.32 75.403 316.804C76.8866 315.288 79.0189 314.392 81.6125 314.392V312.392C78.5421 312.392 75.8744 313.464 73.974 315.404C72.0747 317.344 71.0125 320.079 71.0125 323.28H73.0125ZM81.6125 314.392C84.2061 314.392 86.3384 315.288 87.822 316.804C89.3067 318.32 90.2125 320.529 90.2125 323.28H92.2125C92.2125 320.079 91.1503 317.344 89.251 315.404C87.3506 313.464 84.6829 312.392 81.6125 312.392V314.392ZM90.2125 323.28V354H92.2125V323.28H90.2125ZM91.2125 355H105.613V353H91.2125V355ZM106.613 354V320.208H104.613V354H106.613ZM106.613 320.208C106.613 314.024 104.513 308.812 100.808 305.145C97.104 301.479 91.871 299.432 85.7405 299.432V301.432C91.418 301.432 96.121 303.321 99.4011 306.567C102.68 309.812 104.613 314.488 104.613 320.208H106.613ZM161.374 342.384L162.298 342.765L162.66 341.888L161.803 341.481L161.374 342.384ZM149.854 336.912L150.283 336.009L149.443 335.61L148.984 336.418L149.854 336.912ZM126.334 331.824V330.824H125.195L125.342 331.953L126.334 331.824ZM163.197 331.824V332.824H163.918L164.146 332.14L163.197 331.824ZM126.621 321.264L125.649 321.032L125.355 322.264H126.621V321.264ZM148.605 321.264V322.264H149.714L149.6 321.161L148.605 321.264ZM164.87 326.256C164.87 311.203 153.089 299.432 137.854 299.432V301.432C151.994 301.432 162.87 312.317 162.87 326.256H164.87ZM137.854 299.432C122.304 299.432 110.357 311.517 110.357 327.696H112.357C112.357 312.579 123.451 301.432 137.854 301.432V299.432ZM110.357 327.696C110.357 343.381 121.619 356.152 138.814 356.152V354.152C122.792 354.152 112.357 342.347 112.357 327.696H110.357ZM138.814 356.152C149.852 356.152 158.935 350.918 162.298 342.765L160.449 342.003C157.476 349.21 149.279 354.152 138.814 354.152V356.152ZM161.803 341.481L150.283 336.009L149.424 337.815L160.944 343.287L161.803 341.481ZM148.984 336.418C147.166 339.621 143.777 341.672 139.006 341.672V343.672C144.41 343.672 148.509 341.307 150.723 337.406L148.984 336.418ZM139.006 341.672C135.656 341.672 132.948 340.679 130.985 338.977C129.022 337.274 127.73 334.798 127.325 331.695L125.342 331.953C125.801 335.474 127.293 338.422 129.674 340.487C132.055 342.553 135.251 343.672 139.006 343.672V341.672ZM126.334 332.824H163.197V330.824H126.334V332.824ZM164.146 332.14C164.677 330.546 164.87 328.402 164.87 326.256H162.87C162.87 328.334 162.678 330.222 162.249 331.508L164.146 332.14ZM127.594 321.496C128.273 318.643 129.567 316.522 131.287 315.114C133.005 313.708 135.22 312.952 137.854 312.952V310.952C134.823 310.952 132.142 311.828 130.02 313.566C127.9 315.302 126.41 317.837 125.649 321.032L127.594 321.496ZM137.854 312.952C143.324 312.952 147.091 316.338 147.611 321.367L149.6 321.161C148.968 315.054 144.287 310.952 137.854 310.952V312.952ZM148.605 320.264H126.621V322.264H148.605V320.264ZM71.288 427.84L72.2591 428.079L72.288 427.961V427.84H71.288ZM71.288 407.68H72.288V406.68H71.288V407.68ZM39.608 407.68V406.68H38.608V407.68H39.608ZM39.608 420.64H38.608V421.64H39.608V420.64ZM56.888 420.64H57.888V419.64H56.888V420.64ZM56.888 426.88L57.8093 427.269L57.888 427.082V426.88H56.888ZM55.928 400.768L54.9874 401.108L55.3638 402.15L56.362 401.669L55.928 400.768ZM69.08 394.432L69.514 395.333L70.3223 394.943L70.0225 394.098L69.08 394.432ZM39.416 450.152C57.7578 450.152 69.2532 440.303 72.2591 428.079L70.3169 427.601C67.5628 438.801 56.9782 448.152 39.416 448.152V450.152ZM72.288 427.84V407.68H70.288V427.84H72.288ZM71.288 406.68H39.608V408.68H71.288V406.68ZM38.608 407.68V420.64H40.608V407.68H38.608ZM39.608 421.64H56.888V419.64H39.608V421.64ZM55.888 420.64V426.88H57.888V420.64H55.888ZM55.9668 426.491C54.3361 430.353 49.1026 434.712 39.416 434.712V436.712C49.6974 436.712 55.7919 432.047 57.8093 427.269L55.9668 426.491ZM39.416 434.712C32.8434 434.712 27.5768 432.428 23.9482 428.527C20.3122 424.618 18.24 418.998 18.24 412.192H16.24C16.24 419.402 18.4398 425.542 22.4838 429.889C26.5352 434.244 32.3566 436.712 39.416 436.712V434.712ZM18.24 412.192C18.24 405.435 20.3118 399.832 23.8379 395.931C27.3562 392.038 32.3842 389.768 38.456 389.768V387.768C31.8558 387.768 26.2758 390.25 22.3541 394.589C18.4402 398.92 16.24 405.029 16.24 412.192H18.24ZM38.456 389.768C46.6579 389.768 52.6287 394.576 54.9874 401.108L56.8686 400.428C54.2353 393.136 47.5342 387.768 38.456 387.768V389.768ZM56.362 401.669L69.514 395.333L68.646 393.531L55.494 399.867L56.362 401.669ZM70.0225 394.098C66.1192 383.089 54.2797 374.328 38.456 374.328V376.328C53.5443 376.328 64.5528 384.655 68.1375 394.766L70.0225 394.098ZM38.456 374.328C17.1504 374.328 1.36 390.345 1.36 412.192H3.36C3.36 391.415 18.2896 376.328 38.456 376.328V374.328ZM1.36 412.192C1.36 433.959 17.358 450.152 39.416 450.152V448.152C18.466 448.152 3.36 432.857 3.36 412.192H1.36ZM78.0275 408.64L77.0853 408.305L76.7842 409.152L77.5943 409.541L78.0275 408.64ZM90.4115 414.592L89.9783 415.493L91.0076 415.988L91.3621 414.902L90.4115 414.592ZM109.324 415.168L109.53 416.147L110.324 415.979V415.168H109.324ZM92.9075 418.624L93.1104 419.603L93.1135 419.603L92.9075 418.624ZM110.284 443.2H111.284V440.702L109.56 442.51L110.284 443.2ZM110.284 448H109.284V449H110.284V448ZM123.724 448V449H124.724V448H123.724ZM95.4995 428.608L95.2826 427.632L95.2792 427.633L95.4995 428.608ZM109.324 425.536H110.324V424.289L109.107 424.56L109.324 425.536ZM101.259 393.432C89.8105 393.432 80.3327 399.172 77.0853 408.305L78.9697 408.975C81.8663 400.828 90.4365 395.432 101.259 395.432V393.432ZM77.5943 409.541L89.9783 415.493L90.8447 413.691L78.4607 407.739L77.5943 409.541ZM91.3621 414.902C92.7576 410.629 96.584 407.912 101.259 407.912V405.912C95.759 405.912 91.1374 409.147 89.4609 414.282L91.3621 414.902ZM101.259 407.912C103.488 407.912 105.266 408.514 106.464 409.479C107.644 410.429 108.324 411.774 108.324 413.44H110.324C110.324 411.17 109.371 409.251 107.719 407.921C106.085 406.606 103.831 405.912 101.259 405.912V407.912ZM108.324 413.44V415.168H110.324V413.44H108.324ZM109.117 414.189L92.7015 417.645L93.1135 419.603L109.53 416.147L109.117 414.189ZM92.7046 417.645C87.2803 418.769 82.8961 420.646 79.8514 423.321C76.7766 426.023 75.1075 429.508 75.1075 433.696H77.1075C77.1075 430.108 78.5104 427.161 81.1716 424.823C83.8629 422.458 87.8787 420.687 93.1104 419.603L92.7046 417.645ZM75.1075 433.696C75.1075 438.37 77.1188 442.514 80.7031 445.471C84.2765 448.419 89.3639 450.152 95.4995 450.152V448.152C89.7311 448.152 85.1225 446.525 81.9759 443.929C78.8402 441.342 77.1075 437.758 77.1075 433.696H75.1075ZM95.4995 450.152C101.781 450.152 106.857 448.243 111.007 443.89L109.56 442.51C105.838 446.413 101.314 448.152 95.4995 448.152V450.152ZM109.284 443.2V448H111.284V443.2H109.284ZM110.284 449H123.724V447H110.284V449ZM124.724 448V413.44H122.724V448H124.724ZM124.724 413.44C124.724 407.533 122.317 402.501 118.142 398.961C113.981 395.432 108.121 393.432 101.259 393.432V395.432C107.742 395.432 113.114 397.32 116.849 400.487C120.57 403.643 122.724 408.115 122.724 413.44H124.724ZM97.7075 437.592C95.7837 437.592 94.3388 437.143 93.4008 436.437C92.4949 435.755 91.9875 434.783 91.9875 433.504H89.9875C89.9875 435.393 90.7762 436.965 92.1982 438.035C93.5882 439.081 95.5033 439.592 97.7075 439.592V437.592ZM91.9875 433.504C91.9875 432.53 92.2938 431.718 92.8708 431.077C93.4566 430.426 94.3818 429.886 95.7198 429.583L95.2792 427.633C93.6412 428.002 92.3104 428.71 91.3842 429.739C90.4492 430.778 89.9875 432.078 89.9875 433.504H91.9875ZM95.7164 429.584L109.54 426.512L109.107 424.56L95.2826 427.632L95.7164 429.584ZM108.324 425.536V428.032H110.324V425.536H108.324ZM108.324 428.032C108.324 433.253 103.77 437.592 97.7075 437.592V439.592C104.701 439.592 110.324 434.523 110.324 428.032H108.324ZM144.834 401.056H143.834V403.744L145.591 401.71L144.834 401.056ZM144.834 395.584H145.834V394.584H144.834V395.584ZM131.394 395.584V394.584H130.394V395.584H131.394ZM131.394 467.2H130.394V468.2H131.394V467.2ZM145.794 467.2V468.2H146.794V467.2H145.794ZM145.794 443.872L146.47 443.136L144.794 441.595V443.872H145.794ZM160.866 393.432C153.908 393.432 147.947 395.921 144.077 400.402L145.591 401.71C149.016 397.743 154.383 395.432 160.866 395.432V393.432ZM145.834 401.056V395.584H143.834V401.056H145.834ZM144.834 394.584H131.394V396.584H144.834V394.584ZM130.394 395.584V467.2H132.394V395.584H130.394ZM131.394 468.2H145.794V466.2H131.394V468.2ZM146.794 467.2V443.872H144.794V467.2H146.794ZM145.117 444.608C148.88 448.066 154.413 450.152 160.77 450.152V448.152C154.838 448.152 149.812 446.206 146.47 443.136L145.117 444.608ZM160.77 450.152C176.52 450.152 188.458 437.578 188.458 421.792H186.458C186.458 436.534 175.355 448.152 160.77 448.152V450.152ZM188.458 421.792C188.458 405.906 176.324 393.432 160.866 393.432V395.432C175.168 395.432 186.458 406.958 186.458 421.792H188.458ZM159.042 435.192C155.422 435.192 152.381 433.813 150.238 431.483C148.089 429.147 146.794 425.799 146.794 421.792H144.794C144.794 426.233 146.234 430.085 148.766 432.837C151.303 435.595 154.886 437.192 159.042 437.192V435.192ZM146.794 421.792C146.794 417.784 148.089 414.437 150.238 412.101C152.381 409.771 155.422 408.392 159.042 408.392V406.392C154.886 406.392 151.303 407.989 148.766 410.747C146.234 413.499 144.794 417.352 144.794 421.792H146.794ZM159.042 408.392C166.303 408.392 171.578 413.932 171.578 421.792H173.578C173.578 412.948 167.524 406.392 159.042 406.392V408.392ZM171.578 421.792C171.578 429.652 166.303 435.192 159.042 435.192V437.192C167.524 437.192 173.578 430.636 173.578 421.792H171.578Z" fill="url(#paint0_linear_2_7152)" fill-opacity="0.2"/>
<defs>
<linearGradient id="paint0_linear_2_7152" x1="166" y1="179" x2="-17" y2="166" gradientUnits="userSpaceOnUse">
<stop/>
<stop offset="1" stop-opacity="0"/>
</linearGradient>
</defs>
</svg>
